# xmcd
#
# Track frame offsets: 
#        150
#        14362
#        27806
#        39327
#        50216
#        64510
#        69832
#        81766
#        96126
#        111104
#        125306
#        138020
#        151578
#        163932
#        175908
#        190014
#        204556
#        214157
#        226281
#        237924
#        249775
#        261490
#
# Disc length: 3664 seconds
#
# Revision: 2
# Processed by: cddbd v1.5.2PL0 Copyright (c) Steve Scherf et al.
# Submitted via: ExactAudioCopyFreeDBPlugin 1.0
#
DISCID=1e0e4e16
DTITLE=Various Artist - Ken Burns' Country Music '19 Disc 1 - The Rub and Hard 
DTITLE=Times (mono)
DYEAR=2019
DGENRE=Country
TTITLE0=The Carter Family - Can The Circle Be Unbroken 
TTITLE1=Jimmie Rodgers - Mule Skinner Blues (Blue Yodel No. 8) 
TTITLE2=Bradley Kincaid - Barbara Allen 
TTITLE3=James and Martha Carson - I'll Fly Away  
TTITLE4=Charlie Poole with The North Carolina Ramblers - If The River 
TTITLE4=Was Whiskey  
TTITLE5=DeFord Bailey - Fox Chase 
TTITLE6=Jimmie Rodgers - Blue Yodel No. 9 (Standin' On The Corner) 
TTITLE7=The Carter Family - Wildwood Flower  
TTITLE8=Jimmie Rodgers - In The Jailhouse Now 
TTITLE9=Uncle Dave Macon and Sam McGee - Comin' Round The Mountain  
TTITLE10=The Coon Creek Girls - Pretty Polly  
TTITLE11=Jimmie Rodgers - T.B. Blues 
TTITLE12=Grandpa Jones and His Grandchildren - Mountain Dew  
TTITLE13=Gene Autry - Home On The Range 
TTITLE14=Patsy Montana and The Prairie Ramblers - I Want To Be a Cowboy'
TTITLE14=s Sweetheart  
TTITLE15=The Sons Of The Pioneers - Tumbling Tumebleweeds  
TTITLE16=The Carter Family - Keep On The Sunny Side and  I'm Thinking To
TTITLE16=night of My Blue Eyes  
TTITLE17=Roy Acuff - The Great Speckled Bird  
TTITLE18=Bob Wills and His Texas Playboys - Whoa Babe 
TTITLE19=Bob Wills and His Texas Playboys - New San Antonio Rose 
TTITLE20=Roy Acuff and His Smoky Mountain Boys - Wabash Cannon Ball  
TTITLE21=Bill Monroe and His Blue Grass Boys - Mule Skinner Blues  
EXTD=YEAR: 2019
EXTT0=
EXTT1=
EXTT2=
EXTT3=
EXTT4=
EXTT5=
EXTT6=
EXTT7=
EXTT8=
EXTT9=
EXTT10=
EXTT11=
EXTT12=
EXTT13=
EXTT14=
EXTT15=
EXTT16=
EXTT17=
EXTT18=
EXTT19=
EXTT20=
EXTT21=
PLAYORDER=
